<mxfile host="Electron" modified="2023-07-24T07:48:52.445Z" agent="Mozilla/5.0 (X11; Linux x86_64) AppleWebKit/537.36 (KHTML, like Gecko) draw.io/21.6.5 Chrome/114.0.5735.243 Electron/25.3.1 Safari/537.36" etag="AUh6FFaIPXf7L8Mk8mj4" version="21.6.5" type="device">
  <diagram name="Page-1" id="KONO_D8voe5IG7pj8Qex">
    <mxGraphModel dx="1434" dy="870" grid="1" gridSize="10" guides="1" tooltips="1" connect="1" arrows="1" fold="1" page="1" pageScale="1" pageWidth="850" pageHeight="1100" math="0" shadow="0">
      <root>
        <mxCell id="0" />
        <mxCell id="1" parent="0" />
        <mxCell id="-AwJMKzSx5QxQ550fno--1" value="2" style="rounded=0;whiteSpace=wrap;html=1;" parent="1" vertex="1">
          <mxGeometry x="80" y="100" width="40" height="40" as="geometry" />
        </mxCell>
        <mxCell id="-AwJMKzSx5QxQ550fno--2" value="7" style="rounded=0;whiteSpace=wrap;html=1;" parent="1" vertex="1">
          <mxGeometry x="120" y="100" width="40" height="40" as="geometry" />
        </mxCell>
        <mxCell id="-AwJMKzSx5QxQ550fno--3" value="11" style="rounded=0;whiteSpace=wrap;html=1;" parent="1" vertex="1">
          <mxGeometry x="160" y="100" width="40" height="40" as="geometry" />
        </mxCell>
        <mxCell id="-AwJMKzSx5QxQ550fno--4" value="15" style="rounded=0;whiteSpace=wrap;html=1;" parent="1" vertex="1">
          <mxGeometry x="200" y="100" width="40" height="40" as="geometry" />
        </mxCell>
        <mxCell id="-AwJMKzSx5QxQ550fno--8" value="nums" style="text;html=1;strokeColor=none;fillColor=none;align=center;verticalAlign=middle;whiteSpace=wrap;rounded=0;" parent="1" vertex="1">
          <mxGeometry x="170" y="60" width="60" height="30" as="geometry" />
        </mxCell>
        <mxCell id="-AwJMKzSx5QxQ550fno--9" value="8" style="rounded=0;whiteSpace=wrap;html=1;" parent="1" vertex="1">
          <mxGeometry x="360" y="100" width="40" height="40" as="geometry" />
        </mxCell>
        <mxCell id="-AwJMKzSx5QxQ550fno--10" value="target" style="text;html=1;strokeColor=none;fillColor=none;align=center;verticalAlign=middle;whiteSpace=wrap;rounded=0;" parent="1" vertex="1">
          <mxGeometry x="350" y="70" width="60" height="30" as="geometry" />
        </mxCell>
        <mxCell id="-AwJMKzSx5QxQ550fno--12" value="6" style="rounded=0;whiteSpace=wrap;html=1;" parent="1" vertex="1">
          <mxGeometry x="240" y="100" width="40" height="40" as="geometry" />
        </mxCell>
        <mxCell id="-AwJMKzSx5QxQ550fno--13" value="1" style="rounded=0;whiteSpace=wrap;html=1;" parent="1" vertex="1">
          <mxGeometry x="280" y="100" width="40" height="40" as="geometry" />
        </mxCell>
        <mxCell id="-AwJMKzSx5QxQ550fno--14" value="" style="rounded=0;whiteSpace=wrap;html=1;" parent="1" vertex="1">
          <mxGeometry x="80" y="180" width="40" height="40" as="geometry" />
        </mxCell>
        <mxCell id="-AwJMKzSx5QxQ550fno--15" value="d" style="text;html=1;strokeColor=none;fillColor=none;align=center;verticalAlign=middle;whiteSpace=wrap;rounded=0;" parent="1" vertex="1">
          <mxGeometry x="70" y="150" width="60" height="30" as="geometry" />
        </mxCell>
        <mxCell id="-AwJMKzSx5QxQ550fno--16" value="Pre-conditions" style="text;html=1;strokeColor=none;fillColor=none;align=center;verticalAlign=middle;whiteSpace=wrap;rounded=0;fontSize=15;" parent="1" vertex="1">
          <mxGeometry x="20" y="40" width="120" height="30" as="geometry" />
        </mxCell>
        <mxCell id="-AwJMKzSx5QxQ550fno--18" value="&lt;font color=&quot;#00ff00&quot;&gt;2&lt;/font&gt;" style="rounded=0;whiteSpace=wrap;html=1;fillColor=#647687;fontColor=#ffffff;strokeColor=#314354;" parent="1" vertex="1">
          <mxGeometry x="80" y="320" width="40" height="40" as="geometry" />
        </mxCell>
        <mxCell id="-AwJMKzSx5QxQ550fno--19" value="7" style="rounded=0;whiteSpace=wrap;html=1;" parent="1" vertex="1">
          <mxGeometry x="120" y="320" width="40" height="40" as="geometry" />
        </mxCell>
        <mxCell id="-AwJMKzSx5QxQ550fno--20" value="11" style="rounded=0;whiteSpace=wrap;html=1;" parent="1" vertex="1">
          <mxGeometry x="160" y="320" width="40" height="40" as="geometry" />
        </mxCell>
        <mxCell id="-AwJMKzSx5QxQ550fno--21" value="15" style="rounded=0;whiteSpace=wrap;html=1;" parent="1" vertex="1">
          <mxGeometry x="200" y="320" width="40" height="40" as="geometry" />
        </mxCell>
        <mxCell id="-AwJMKzSx5QxQ550fno--22" value="nums" style="text;html=1;strokeColor=none;fillColor=none;align=center;verticalAlign=middle;whiteSpace=wrap;rounded=0;" parent="1" vertex="1">
          <mxGeometry x="170" y="280" width="60" height="30" as="geometry" />
        </mxCell>
        <mxCell id="-AwJMKzSx5QxQ550fno--25" value="6" style="rounded=0;whiteSpace=wrap;html=1;" parent="1" vertex="1">
          <mxGeometry x="240" y="320" width="40" height="40" as="geometry" />
        </mxCell>
        <mxCell id="-AwJMKzSx5QxQ550fno--26" value="1" style="rounded=0;whiteSpace=wrap;html=1;" parent="1" vertex="1">
          <mxGeometry x="280" y="320" width="40" height="40" as="geometry" />
        </mxCell>
        <mxCell id="-AwJMKzSx5QxQ550fno--27" value="&lt;font color=&quot;#00ff00&quot;&gt;6&lt;/font&gt; : &lt;font color=&quot;#7f00ff&quot;&gt;0&lt;/font&gt;" style="rounded=0;whiteSpace=wrap;html=1;" parent="1" vertex="1">
          <mxGeometry x="80" y="480" width="40" height="40" as="geometry" />
        </mxCell>
        <mxCell id="-AwJMKzSx5QxQ550fno--28" value="d" style="text;html=1;strokeColor=none;fillColor=none;align=center;verticalAlign=middle;whiteSpace=wrap;rounded=0;" parent="1" vertex="1">
          <mxGeometry x="70" y="450" width="60" height="30" as="geometry" />
        </mxCell>
        <mxCell id="-AwJMKzSx5QxQ550fno--30" value="diff = target - nums[0]" style="text;html=1;strokeColor=none;fillColor=none;align=center;verticalAlign=middle;whiteSpace=wrap;rounded=0;" parent="1" vertex="1">
          <mxGeometry x="120" y="400" width="160" height="40" as="geometry" />
        </mxCell>
        <mxCell id="-AwJMKzSx5QxQ550fno--31" value="2" style="rounded=0;whiteSpace=wrap;html=1;fillColor=#647687;fontColor=#ffffff;strokeColor=#314354;" parent="1" vertex="1">
          <mxGeometry x="80" y="600" width="40" height="40" as="geometry" />
        </mxCell>
        <mxCell id="-AwJMKzSx5QxQ550fno--32" value="&lt;font color=&quot;#00ff00&quot;&gt;7&lt;/font&gt;" style="rounded=0;whiteSpace=wrap;html=1;fillColor=#647687;fontColor=#ffffff;strokeColor=#314354;" parent="1" vertex="1">
          <mxGeometry x="120" y="600" width="40" height="40" as="geometry" />
        </mxCell>
        <mxCell id="-AwJMKzSx5QxQ550fno--33" value="11" style="rounded=0;whiteSpace=wrap;html=1;" parent="1" vertex="1">
          <mxGeometry x="160" y="600" width="40" height="40" as="geometry" />
        </mxCell>
        <mxCell id="-AwJMKzSx5QxQ550fno--34" value="15" style="rounded=0;whiteSpace=wrap;html=1;" parent="1" vertex="1">
          <mxGeometry x="200" y="600" width="40" height="40" as="geometry" />
        </mxCell>
        <mxCell id="-AwJMKzSx5QxQ550fno--35" value="nums" style="text;html=1;strokeColor=none;fillColor=none;align=center;verticalAlign=middle;whiteSpace=wrap;rounded=0;" parent="1" vertex="1">
          <mxGeometry x="170" y="560" width="60" height="30" as="geometry" />
        </mxCell>
        <mxCell id="-AwJMKzSx5QxQ550fno--38" value="6" style="rounded=0;whiteSpace=wrap;html=1;" parent="1" vertex="1">
          <mxGeometry x="240" y="600" width="40" height="40" as="geometry" />
        </mxCell>
        <mxCell id="-AwJMKzSx5QxQ550fno--39" value="3" style="rounded=0;whiteSpace=wrap;html=1;" parent="1" vertex="1">
          <mxGeometry x="280" y="600" width="40" height="40" as="geometry" />
        </mxCell>
        <mxCell id="-AwJMKzSx5QxQ550fno--40" value="&lt;font color=&quot;#ffffff&quot;&gt;6&lt;/font&gt; : &lt;font color=&quot;#ffffff&quot;&gt;0&lt;/font&gt;" style="rounded=0;whiteSpace=wrap;html=1;" parent="1" vertex="1">
          <mxGeometry x="80" y="760" width="40" height="40" as="geometry" />
        </mxCell>
        <mxCell id="-AwJMKzSx5QxQ550fno--41" value="d" style="text;html=1;strokeColor=none;fillColor=none;align=center;verticalAlign=middle;whiteSpace=wrap;rounded=0;" parent="1" vertex="1">
          <mxGeometry x="90" y="730" width="60" height="30" as="geometry" />
        </mxCell>
        <mxCell id="-AwJMKzSx5QxQ550fno--42" value="diff = target - nums[1]" style="text;html=1;strokeColor=none;fillColor=none;align=center;verticalAlign=middle;whiteSpace=wrap;rounded=0;" parent="1" vertex="1">
          <mxGeometry x="110" y="680" width="180" height="40" as="geometry" />
        </mxCell>
        <mxCell id="-AwJMKzSx5QxQ550fno--43" value="&lt;font color=&quot;#00ff00&quot;&gt;1&lt;/font&gt; : &lt;font color=&quot;#7f00ff&quot;&gt;1&lt;/font&gt;" style="rounded=0;whiteSpace=wrap;html=1;" parent="1" vertex="1">
          <mxGeometry x="120" y="760" width="40" height="40" as="geometry" />
        </mxCell>
        <mxCell id="-AwJMKzSx5QxQ550fno--44" value="2" style="rounded=0;whiteSpace=wrap;html=1;fillColor=#647687;fontColor=#ffffff;strokeColor=#314354;" parent="1" vertex="1">
          <mxGeometry x="80" y="880" width="40" height="40" as="geometry" />
        </mxCell>
        <mxCell id="-AwJMKzSx5QxQ550fno--45" value="7" style="rounded=0;whiteSpace=wrap;html=1;fillColor=#647687;fontColor=#ffffff;strokeColor=#314354;" parent="1" vertex="1">
          <mxGeometry x="120" y="880" width="40" height="40" as="geometry" />
        </mxCell>
        <mxCell id="-AwJMKzSx5QxQ550fno--46" value="&lt;font color=&quot;#00ff00&quot;&gt;11&lt;/font&gt;" style="rounded=0;whiteSpace=wrap;html=1;fillColor=#647687;fontColor=#ffffff;strokeColor=#314354;" parent="1" vertex="1">
          <mxGeometry x="160" y="880" width="40" height="40" as="geometry" />
        </mxCell>
        <mxCell id="-AwJMKzSx5QxQ550fno--47" value="15" style="rounded=0;whiteSpace=wrap;html=1;" parent="1" vertex="1">
          <mxGeometry x="200" y="880" width="40" height="40" as="geometry" />
        </mxCell>
        <mxCell id="-AwJMKzSx5QxQ550fno--48" value="nums" style="text;html=1;strokeColor=none;fillColor=none;align=center;verticalAlign=middle;whiteSpace=wrap;rounded=0;" parent="1" vertex="1">
          <mxGeometry x="170" y="840" width="60" height="30" as="geometry" />
        </mxCell>
        <mxCell id="-AwJMKzSx5QxQ550fno--51" value="6" style="rounded=0;whiteSpace=wrap;html=1;" parent="1" vertex="1">
          <mxGeometry x="240" y="880" width="40" height="40" as="geometry" />
        </mxCell>
        <mxCell id="-AwJMKzSx5QxQ550fno--52" value="3" style="rounded=0;whiteSpace=wrap;html=1;" parent="1" vertex="1">
          <mxGeometry x="280" y="880" width="40" height="40" as="geometry" />
        </mxCell>
        <mxCell id="-AwJMKzSx5QxQ550fno--53" value="&lt;font color=&quot;#ffffff&quot;&gt;6&lt;/font&gt; : &lt;font color=&quot;#ffffff&quot;&gt;0&lt;/font&gt;" style="rounded=0;whiteSpace=wrap;html=1;" parent="1" vertex="1">
          <mxGeometry x="80" y="1040" width="40" height="40" as="geometry" />
        </mxCell>
        <mxCell id="-AwJMKzSx5QxQ550fno--54" value="d" style="text;html=1;strokeColor=none;fillColor=none;align=center;verticalAlign=middle;whiteSpace=wrap;rounded=0;" parent="1" vertex="1">
          <mxGeometry x="110" y="1010" width="60" height="30" as="geometry" />
        </mxCell>
        <mxCell id="-AwJMKzSx5QxQ550fno--55" value="diff = target - nums[2]" style="text;html=1;strokeColor=none;fillColor=none;align=center;verticalAlign=middle;whiteSpace=wrap;rounded=0;" parent="1" vertex="1">
          <mxGeometry x="110" y="960" width="180" height="40" as="geometry" />
        </mxCell>
        <mxCell id="-AwJMKzSx5QxQ550fno--56" value="&lt;font color=&quot;#ffffff&quot;&gt;1&lt;/font&gt; : &lt;font color=&quot;#ffffff&quot;&gt;1&lt;/font&gt;" style="rounded=0;whiteSpace=wrap;html=1;" parent="1" vertex="1">
          <mxGeometry x="120" y="1040" width="40" height="40" as="geometry" />
        </mxCell>
        <mxCell id="-AwJMKzSx5QxQ550fno--57" value="&lt;font color=&quot;#00ff00&quot;&gt;-3&lt;/font&gt; : &lt;font color=&quot;#7f00ff&quot;&gt;2&lt;/font&gt;" style="rounded=0;whiteSpace=wrap;html=1;" parent="1" vertex="1">
          <mxGeometry x="160" y="1040" width="40" height="40" as="geometry" />
        </mxCell>
        <mxCell id="-AwJMKzSx5QxQ550fno--58" value="2" style="rounded=0;whiteSpace=wrap;html=1;fillColor=#647687;fontColor=#ffffff;strokeColor=#314354;" parent="1" vertex="1">
          <mxGeometry x="80" y="1160" width="40" height="40" as="geometry" />
        </mxCell>
        <mxCell id="-AwJMKzSx5QxQ550fno--59" value="7" style="rounded=0;whiteSpace=wrap;html=1;fillColor=#647687;fontColor=#ffffff;strokeColor=#314354;" parent="1" vertex="1">
          <mxGeometry x="120" y="1160" width="40" height="40" as="geometry" />
        </mxCell>
        <mxCell id="-AwJMKzSx5QxQ550fno--60" value="11" style="rounded=0;whiteSpace=wrap;html=1;fillColor=#647687;fontColor=#ffffff;strokeColor=#314354;" parent="1" vertex="1">
          <mxGeometry x="160" y="1160" width="40" height="40" as="geometry" />
        </mxCell>
        <mxCell id="-AwJMKzSx5QxQ550fno--61" value="&lt;font color=&quot;#00ff00&quot;&gt;15&lt;/font&gt;" style="rounded=0;whiteSpace=wrap;html=1;fillColor=#647687;fontColor=#ffffff;strokeColor=#314354;" parent="1" vertex="1">
          <mxGeometry x="200" y="1160" width="40" height="40" as="geometry" />
        </mxCell>
        <mxCell id="-AwJMKzSx5QxQ550fno--62" value="nums" style="text;html=1;strokeColor=none;fillColor=none;align=center;verticalAlign=middle;whiteSpace=wrap;rounded=0;" parent="1" vertex="1">
          <mxGeometry x="170" y="1120" width="60" height="30" as="geometry" />
        </mxCell>
        <mxCell id="-AwJMKzSx5QxQ550fno--65" value="6" style="rounded=0;whiteSpace=wrap;html=1;" parent="1" vertex="1">
          <mxGeometry x="240" y="1160" width="40" height="40" as="geometry" />
        </mxCell>
        <mxCell id="-AwJMKzSx5QxQ550fno--66" value="3" style="rounded=0;whiteSpace=wrap;html=1;" parent="1" vertex="1">
          <mxGeometry x="280" y="1160" width="40" height="40" as="geometry" />
        </mxCell>
        <mxCell id="-AwJMKzSx5QxQ550fno--67" value="&lt;font color=&quot;#ffffff&quot;&gt;6&lt;/font&gt; : &lt;font color=&quot;#ffffff&quot;&gt;0&lt;/font&gt;" style="rounded=0;whiteSpace=wrap;html=1;" parent="1" vertex="1">
          <mxGeometry x="80" y="1320" width="40" height="40" as="geometry" />
        </mxCell>
        <mxCell id="-AwJMKzSx5QxQ550fno--68" value="d" style="text;html=1;strokeColor=none;fillColor=none;align=center;verticalAlign=middle;whiteSpace=wrap;rounded=0;" parent="1" vertex="1">
          <mxGeometry x="130" y="1290" width="60" height="30" as="geometry" />
        </mxCell>
        <mxCell id="-AwJMKzSx5QxQ550fno--69" value="diff = target - nums[3]" style="text;html=1;strokeColor=none;fillColor=none;align=center;verticalAlign=middle;whiteSpace=wrap;rounded=0;" parent="1" vertex="1">
          <mxGeometry x="110" y="1240" width="180" height="40" as="geometry" />
        </mxCell>
        <mxCell id="-AwJMKzSx5QxQ550fno--70" value="&lt;font color=&quot;#ffffff&quot;&gt;1&lt;/font&gt; : &lt;font color=&quot;#ffffff&quot;&gt;1&lt;/font&gt;" style="rounded=0;whiteSpace=wrap;html=1;" parent="1" vertex="1">
          <mxGeometry x="120" y="1320" width="40" height="40" as="geometry" />
        </mxCell>
        <mxCell id="-AwJMKzSx5QxQ550fno--71" value="&lt;font color=&quot;#ffffff&quot;&gt;-3&lt;/font&gt; : &lt;font color=&quot;#ffffff&quot;&gt;2&lt;/font&gt;" style="rounded=0;whiteSpace=wrap;html=1;" parent="1" vertex="1">
          <mxGeometry x="160" y="1320" width="40" height="40" as="geometry" />
        </mxCell>
        <mxCell id="-AwJMKzSx5QxQ550fno--72" value="&lt;font color=&quot;#00ff00&quot;&gt;-7&lt;/font&gt; : &lt;font color=&quot;#7f00ff&quot;&gt;3&lt;/font&gt;" style="rounded=0;whiteSpace=wrap;html=1;" parent="1" vertex="1">
          <mxGeometry x="200" y="1320" width="40" height="40" as="geometry" />
        </mxCell>
        <mxCell id="-AwJMKzSx5QxQ550fno--73" value="Is nums[0] in dict: &lt;b&gt;NO&lt;/b&gt;" style="text;html=1;strokeColor=none;fillColor=none;align=center;verticalAlign=middle;whiteSpace=wrap;rounded=0;" parent="1" vertex="1">
          <mxGeometry x="120" y="370" width="160" height="40" as="geometry" />
        </mxCell>
        <mxCell id="-AwJMKzSx5QxQ550fno--74" value="Is nums[1] in dict: &lt;b&gt;NO&lt;/b&gt;" style="text;html=1;strokeColor=none;fillColor=none;align=center;verticalAlign=middle;whiteSpace=wrap;rounded=0;" parent="1" vertex="1">
          <mxGeometry x="120" y="650" width="160" height="40" as="geometry" />
        </mxCell>
        <mxCell id="-AwJMKzSx5QxQ550fno--75" value="Is nums[2] in dict: &lt;b&gt;NO&lt;/b&gt;" style="text;html=1;strokeColor=none;fillColor=none;align=center;verticalAlign=middle;whiteSpace=wrap;rounded=0;" parent="1" vertex="1">
          <mxGeometry x="120" y="930" width="160" height="40" as="geometry" />
        </mxCell>
        <mxCell id="-AwJMKzSx5QxQ550fno--76" value="Is nums[3] in dict: &lt;b&gt;NO&lt;/b&gt;" style="text;html=1;strokeColor=none;fillColor=none;align=center;verticalAlign=middle;whiteSpace=wrap;rounded=0;" parent="1" vertex="1">
          <mxGeometry x="120" y="1210" width="160" height="40" as="geometry" />
        </mxCell>
        <mxCell id="-AwJMKzSx5QxQ550fno--93" value="2" style="rounded=0;whiteSpace=wrap;html=1;fillColor=#6d8764;fontColor=#ffffff;strokeColor=#3A5431;" parent="1" vertex="1">
          <mxGeometry x="80" y="1440" width="40" height="40" as="geometry" />
        </mxCell>
        <mxCell id="-AwJMKzSx5QxQ550fno--94" value="7" style="rounded=0;whiteSpace=wrap;html=1;fillColor=#647687;fontColor=#ffffff;strokeColor=#314354;" parent="1" vertex="1">
          <mxGeometry x="120" y="1440" width="40" height="40" as="geometry" />
        </mxCell>
        <mxCell id="-AwJMKzSx5QxQ550fno--95" value="11" style="rounded=0;whiteSpace=wrap;html=1;fillColor=#647687;fontColor=#ffffff;strokeColor=#314354;" parent="1" vertex="1">
          <mxGeometry x="160" y="1440" width="40" height="40" as="geometry" />
        </mxCell>
        <mxCell id="-AwJMKzSx5QxQ550fno--96" value="15" style="rounded=0;whiteSpace=wrap;html=1;fillColor=#647687;fontColor=#ffffff;strokeColor=#314354;" parent="1" vertex="1">
          <mxGeometry x="200" y="1440" width="40" height="40" as="geometry" />
        </mxCell>
        <mxCell id="-AwJMKzSx5QxQ550fno--97" value="nums" style="text;html=1;strokeColor=none;fillColor=none;align=center;verticalAlign=middle;whiteSpace=wrap;rounded=0;" parent="1" vertex="1">
          <mxGeometry x="170" y="1400" width="60" height="30" as="geometry" />
        </mxCell>
        <mxCell id="-AwJMKzSx5QxQ550fno--100" value="6" style="rounded=0;whiteSpace=wrap;html=1;fillColor=#6d8764;fontColor=#ffffff;strokeColor=#3A5431;" parent="1" vertex="1">
          <mxGeometry x="240" y="1440" width="40" height="40" as="geometry" />
        </mxCell>
        <mxCell id="-AwJMKzSx5QxQ550fno--101" value="3" style="rounded=0;whiteSpace=wrap;html=1;" parent="1" vertex="1">
          <mxGeometry x="280" y="1440" width="40" height="40" as="geometry" />
        </mxCell>
        <mxCell id="-AwJMKzSx5QxQ550fno--103" value="d" style="text;html=1;strokeColor=none;fillColor=none;align=center;verticalAlign=middle;whiteSpace=wrap;rounded=0;fontColor=#FFFFFF;" parent="1" vertex="1">
          <mxGeometry x="130" y="1570" width="60" height="30" as="geometry" />
        </mxCell>
        <mxCell id="-AwJMKzSx5QxQ550fno--108" value="Is nums[4] in dict: &lt;b&gt;YES&lt;/b&gt;" style="text;html=1;strokeColor=none;fillColor=none;align=center;verticalAlign=middle;whiteSpace=wrap;rounded=0;" parent="1" vertex="1">
          <mxGeometry x="90" y="1490" width="160" height="40" as="geometry" />
        </mxCell>
        <mxCell id="-AwJMKzSx5QxQ550fno--109" value="Solution: [0,4] or [4,0]" style="text;html=1;strokeColor=none;fillColor=none;align=center;verticalAlign=middle;whiteSpace=wrap;rounded=0;" parent="1" vertex="1">
          <mxGeometry x="90" y="1530" width="160" height="40" as="geometry" />
        </mxCell>
        <mxCell id="-AwJMKzSx5QxQ550fno--110" value="Iterations" style="text;html=1;strokeColor=none;fillColor=none;align=center;verticalAlign=middle;whiteSpace=wrap;rounded=0;fontSize=15;" parent="1" vertex="1">
          <mxGeometry y="260" width="120" height="30" as="geometry" />
        </mxCell>
        <mxCell id="-AwJMKzSx5QxQ550fno--111" value="&lt;font&gt;6&lt;/font&gt; : &lt;font&gt;0&lt;/font&gt;" style="rounded=0;whiteSpace=wrap;html=1;fontColor=#FFFFFF;" parent="1" vertex="1">
          <mxGeometry x="80" y="1600" width="40" height="40" as="geometry" />
        </mxCell>
        <mxCell id="-AwJMKzSx5QxQ550fno--112" value="&lt;font&gt;1&lt;/font&gt; : &lt;font&gt;1&lt;/font&gt;" style="rounded=0;whiteSpace=wrap;html=1;fontColor=#FFFFFF;" parent="1" vertex="1">
          <mxGeometry x="120" y="1600" width="40" height="40" as="geometry" />
        </mxCell>
        <mxCell id="-AwJMKzSx5QxQ550fno--113" value="&lt;font&gt;-3&lt;/font&gt; : &lt;font&gt;2&lt;/font&gt;" style="rounded=0;whiteSpace=wrap;html=1;fontColor=#FFFFFF;" parent="1" vertex="1">
          <mxGeometry x="160" y="1600" width="40" height="40" as="geometry" />
        </mxCell>
        <mxCell id="-AwJMKzSx5QxQ550fno--114" value="&lt;font&gt;-7&lt;/font&gt; : &lt;font&gt;3&lt;/font&gt;" style="rounded=0;whiteSpace=wrap;html=1;fontColor=#FFFFFF;" parent="1" vertex="1">
          <mxGeometry x="200" y="1600" width="40" height="40" as="geometry" />
        </mxCell>
        <mxCell id="-AwJMKzSx5QxQ550fno--118" value="0" style="text;html=1;strokeColor=none;fillColor=none;align=center;verticalAlign=middle;whiteSpace=wrap;rounded=0;" parent="1" vertex="1">
          <mxGeometry x="80" y="80" width="40" height="20" as="geometry" />
        </mxCell>
        <mxCell id="-AwJMKzSx5QxQ550fno--119" value="1" style="text;html=1;strokeColor=none;fillColor=none;align=center;verticalAlign=middle;whiteSpace=wrap;rounded=0;" parent="1" vertex="1">
          <mxGeometry x="120" y="80" width="40" height="20" as="geometry" />
        </mxCell>
        <mxCell id="-AwJMKzSx5QxQ550fno--120" value="2" style="text;html=1;strokeColor=none;fillColor=none;align=center;verticalAlign=middle;whiteSpace=wrap;rounded=0;" parent="1" vertex="1">
          <mxGeometry x="160" y="80" width="40" height="20" as="geometry" />
        </mxCell>
        <mxCell id="-AwJMKzSx5QxQ550fno--121" value="3" style="text;html=1;strokeColor=none;fillColor=none;align=center;verticalAlign=middle;whiteSpace=wrap;rounded=0;" parent="1" vertex="1">
          <mxGeometry x="200" y="80" width="40" height="20" as="geometry" />
        </mxCell>
        <mxCell id="-AwJMKzSx5QxQ550fno--122" value="4" style="text;html=1;strokeColor=none;fillColor=none;align=center;verticalAlign=middle;whiteSpace=wrap;rounded=0;" parent="1" vertex="1">
          <mxGeometry x="240" y="80" width="40" height="20" as="geometry" />
        </mxCell>
        <mxCell id="-AwJMKzSx5QxQ550fno--123" value="5" style="text;html=1;strokeColor=none;fillColor=none;align=center;verticalAlign=middle;whiteSpace=wrap;rounded=0;" parent="1" vertex="1">
          <mxGeometry x="280" y="80" width="40" height="20" as="geometry" />
        </mxCell>
        <mxCell id="-AwJMKzSx5QxQ550fno--124" value="0" style="text;html=1;strokeColor=none;fillColor=none;align=center;verticalAlign=middle;whiteSpace=wrap;rounded=0;fontColor=#7F00FF;" parent="1" vertex="1">
          <mxGeometry x="80" y="300" width="40" height="20" as="geometry" />
        </mxCell>
        <mxCell id="-AwJMKzSx5QxQ550fno--125" value="1" style="text;html=1;strokeColor=none;fillColor=none;align=center;verticalAlign=middle;whiteSpace=wrap;rounded=0;" parent="1" vertex="1">
          <mxGeometry x="120" y="300" width="40" height="20" as="geometry" />
        </mxCell>
        <mxCell id="-AwJMKzSx5QxQ550fno--126" value="2" style="text;html=1;strokeColor=none;fillColor=none;align=center;verticalAlign=middle;whiteSpace=wrap;rounded=0;" parent="1" vertex="1">
          <mxGeometry x="160" y="300" width="40" height="20" as="geometry" />
        </mxCell>
        <mxCell id="-AwJMKzSx5QxQ550fno--127" value="3" style="text;html=1;strokeColor=none;fillColor=none;align=center;verticalAlign=middle;whiteSpace=wrap;rounded=0;" parent="1" vertex="1">
          <mxGeometry x="200" y="300" width="40" height="20" as="geometry" />
        </mxCell>
        <mxCell id="-AwJMKzSx5QxQ550fno--128" value="4" style="text;html=1;strokeColor=none;fillColor=none;align=center;verticalAlign=middle;whiteSpace=wrap;rounded=0;" parent="1" vertex="1">
          <mxGeometry x="240" y="300" width="40" height="20" as="geometry" />
        </mxCell>
        <mxCell id="-AwJMKzSx5QxQ550fno--129" value="5" style="text;html=1;strokeColor=none;fillColor=none;align=center;verticalAlign=middle;whiteSpace=wrap;rounded=0;" parent="1" vertex="1">
          <mxGeometry x="280" y="300" width="40" height="20" as="geometry" />
        </mxCell>
        <mxCell id="-AwJMKzSx5QxQ550fno--130" value="0" style="text;html=1;strokeColor=none;fillColor=none;align=center;verticalAlign=middle;whiteSpace=wrap;rounded=0;fontColor=#FFFFFF;" parent="1" vertex="1">
          <mxGeometry x="80" y="580" width="40" height="20" as="geometry" />
        </mxCell>
        <mxCell id="-AwJMKzSx5QxQ550fno--131" value="1" style="text;html=1;strokeColor=none;fillColor=none;align=center;verticalAlign=middle;whiteSpace=wrap;rounded=0;fontColor=#7F00FF;" parent="1" vertex="1">
          <mxGeometry x="120" y="580" width="40" height="20" as="geometry" />
        </mxCell>
        <mxCell id="-AwJMKzSx5QxQ550fno--132" value="2" style="text;html=1;strokeColor=none;fillColor=none;align=center;verticalAlign=middle;whiteSpace=wrap;rounded=0;" parent="1" vertex="1">
          <mxGeometry x="160" y="580" width="40" height="20" as="geometry" />
        </mxCell>
        <mxCell id="-AwJMKzSx5QxQ550fno--133" value="3" style="text;html=1;strokeColor=none;fillColor=none;align=center;verticalAlign=middle;whiteSpace=wrap;rounded=0;" parent="1" vertex="1">
          <mxGeometry x="200" y="580" width="40" height="20" as="geometry" />
        </mxCell>
        <mxCell id="-AwJMKzSx5QxQ550fno--134" value="4" style="text;html=1;strokeColor=none;fillColor=none;align=center;verticalAlign=middle;whiteSpace=wrap;rounded=0;" parent="1" vertex="1">
          <mxGeometry x="240" y="580" width="40" height="20" as="geometry" />
        </mxCell>
        <mxCell id="-AwJMKzSx5QxQ550fno--135" value="5" style="text;html=1;strokeColor=none;fillColor=none;align=center;verticalAlign=middle;whiteSpace=wrap;rounded=0;" parent="1" vertex="1">
          <mxGeometry x="280" y="580" width="40" height="20" as="geometry" />
        </mxCell>
        <mxCell id="-AwJMKzSx5QxQ550fno--136" value="0" style="text;html=1;strokeColor=none;fillColor=none;align=center;verticalAlign=middle;whiteSpace=wrap;rounded=0;fontColor=#FFFFFF;" parent="1" vertex="1">
          <mxGeometry x="80" y="860" width="40" height="20" as="geometry" />
        </mxCell>
        <mxCell id="-AwJMKzSx5QxQ550fno--137" value="1" style="text;html=1;strokeColor=none;fillColor=none;align=center;verticalAlign=middle;whiteSpace=wrap;rounded=0;fontColor=#FFFFFF;" parent="1" vertex="1">
          <mxGeometry x="120" y="860" width="40" height="20" as="geometry" />
        </mxCell>
        <mxCell id="-AwJMKzSx5QxQ550fno--138" value="2" style="text;html=1;strokeColor=none;fillColor=none;align=center;verticalAlign=middle;whiteSpace=wrap;rounded=0;fontColor=#7F00FF;" parent="1" vertex="1">
          <mxGeometry x="160" y="860" width="40" height="20" as="geometry" />
        </mxCell>
        <mxCell id="-AwJMKzSx5QxQ550fno--139" value="3" style="text;html=1;strokeColor=none;fillColor=none;align=center;verticalAlign=middle;whiteSpace=wrap;rounded=0;" parent="1" vertex="1">
          <mxGeometry x="200" y="860" width="40" height="20" as="geometry" />
        </mxCell>
        <mxCell id="-AwJMKzSx5QxQ550fno--140" value="4" style="text;html=1;strokeColor=none;fillColor=none;align=center;verticalAlign=middle;whiteSpace=wrap;rounded=0;" parent="1" vertex="1">
          <mxGeometry x="240" y="860" width="40" height="20" as="geometry" />
        </mxCell>
        <mxCell id="-AwJMKzSx5QxQ550fno--141" value="5" style="text;html=1;strokeColor=none;fillColor=none;align=center;verticalAlign=middle;whiteSpace=wrap;rounded=0;" parent="1" vertex="1">
          <mxGeometry x="280" y="860" width="40" height="20" as="geometry" />
        </mxCell>
        <mxCell id="-AwJMKzSx5QxQ550fno--143" value="0" style="text;html=1;strokeColor=none;fillColor=none;align=center;verticalAlign=middle;whiteSpace=wrap;rounded=0;fontColor=#FFFFFF;" parent="1" vertex="1">
          <mxGeometry x="80" y="1140" width="40" height="20" as="geometry" />
        </mxCell>
        <mxCell id="-AwJMKzSx5QxQ550fno--144" value="1" style="text;html=1;strokeColor=none;fillColor=none;align=center;verticalAlign=middle;whiteSpace=wrap;rounded=0;fontColor=#FFFFFF;" parent="1" vertex="1">
          <mxGeometry x="120" y="1140" width="40" height="20" as="geometry" />
        </mxCell>
        <mxCell id="-AwJMKzSx5QxQ550fno--145" value="2" style="text;html=1;strokeColor=none;fillColor=none;align=center;verticalAlign=middle;whiteSpace=wrap;rounded=0;fontColor=#FFFFFF;" parent="1" vertex="1">
          <mxGeometry x="160" y="1140" width="40" height="20" as="geometry" />
        </mxCell>
        <mxCell id="-AwJMKzSx5QxQ550fno--146" value="3" style="text;html=1;strokeColor=none;fillColor=none;align=center;verticalAlign=middle;whiteSpace=wrap;rounded=0;fontColor=#7F00FF;" parent="1" vertex="1">
          <mxGeometry x="200" y="1140" width="40" height="20" as="geometry" />
        </mxCell>
        <mxCell id="-AwJMKzSx5QxQ550fno--147" value="4" style="text;html=1;strokeColor=none;fillColor=none;align=center;verticalAlign=middle;whiteSpace=wrap;rounded=0;" parent="1" vertex="1">
          <mxGeometry x="240" y="1140" width="40" height="20" as="geometry" />
        </mxCell>
        <mxCell id="-AwJMKzSx5QxQ550fno--148" value="5" style="text;html=1;strokeColor=none;fillColor=none;align=center;verticalAlign=middle;whiteSpace=wrap;rounded=0;" parent="1" vertex="1">
          <mxGeometry x="280" y="1140" width="40" height="20" as="geometry" />
        </mxCell>
        <mxCell id="-AwJMKzSx5QxQ550fno--149" value="0" style="text;html=1;strokeColor=none;fillColor=none;align=center;verticalAlign=middle;whiteSpace=wrap;rounded=0;fontColor=#FFFFFF;" parent="1" vertex="1">
          <mxGeometry x="80" y="1420" width="40" height="20" as="geometry" />
        </mxCell>
        <mxCell id="-AwJMKzSx5QxQ550fno--150" value="1" style="text;html=1;strokeColor=none;fillColor=none;align=center;verticalAlign=middle;whiteSpace=wrap;rounded=0;fontColor=#FFFFFF;" parent="1" vertex="1">
          <mxGeometry x="120" y="1420" width="40" height="20" as="geometry" />
        </mxCell>
        <mxCell id="-AwJMKzSx5QxQ550fno--151" value="2" style="text;html=1;strokeColor=none;fillColor=none;align=center;verticalAlign=middle;whiteSpace=wrap;rounded=0;fontColor=#FFFFFF;" parent="1" vertex="1">
          <mxGeometry x="160" y="1420" width="40" height="20" as="geometry" />
        </mxCell>
        <mxCell id="-AwJMKzSx5QxQ550fno--152" value="3" style="text;html=1;strokeColor=none;fillColor=none;align=center;verticalAlign=middle;whiteSpace=wrap;rounded=0;fontColor=#FFFFFF;" parent="1" vertex="1">
          <mxGeometry x="200" y="1420" width="40" height="20" as="geometry" />
        </mxCell>
        <mxCell id="-AwJMKzSx5QxQ550fno--153" value="4" style="text;html=1;strokeColor=none;fillColor=none;align=center;verticalAlign=middle;whiteSpace=wrap;rounded=0;fontColor=#7F00FF;" parent="1" vertex="1">
          <mxGeometry x="240" y="1420" width="40" height="20" as="geometry" />
        </mxCell>
        <mxCell id="-AwJMKzSx5QxQ550fno--154" value="5" style="text;html=1;strokeColor=none;fillColor=none;align=center;verticalAlign=middle;whiteSpace=wrap;rounded=0;" parent="1" vertex="1">
          <mxGeometry x="280" y="1420" width="40" height="20" as="geometry" />
        </mxCell>
      </root>
    </mxGraphModel>
  </diagram>
</mxfile>
